<?xml version="1.0" encoding="UTF-8"?>
<!DOCTYPE svg PUBLIC "-//W3C//DTD SVG 1.1//EN" "http://www.w3.org/Graphics/SVG/1.1/DTD/svg11.dtd">
<svg version="1.1" xmlns="http://www.w3.org/2000/svg" xmlns:xlink="http://www.w3.org/1999/xlink" width="1326" height="986"  xml:space="preserve" id="c1iCanvas">
    <!-- Generated by PaintCode - http://www.paintcodeapp.com -->
    <g id="c1iCanvas-grey">
        <path id="c1iCanvas-bezier" fill-rule="evenodd" stroke="none" fill="rgb(130, 130, 130)" d="M 285.21,909.19 C 306.41,909.19 323.61,926.4 323.61,947.59 323.61,968.78 306.41,985.99 285.21,985.99 264.02,985.99 246.81,968.78 246.81,947.59 246.81,926.4 264.02,909.19 285.21,909.19 Z M 1214.1,946.54 L 1245.84,946.54 C 1246.47,946.54 1247.06,946.82 1247.5,947.26 1247.96,947.71 1248.17,948.23 1248.15,948.87 1247.47,969.47 1230.53,985.99 1209.76,985.99 1188.56,985.99 1171.35,968.78 1171.35,947.59 1171.35,926.4 1188.56,909.19 1209.76,909.19 1225.06,909.19 1238.28,918.15 1244.45,931.11 1244.82,931.88 1244.76,932.75 1244.32,933.48 1243.87,934.2 1243.23,934.47 1242.38,934.47 L 1226.36,934.47 C 1225.97,934.47 1225.68,934.4 1225.39,934.28 1225.11,934.15 1224.86,933.95 1224.63,933.7 1220.91,929.72 1215.62,927.24 1209.76,927.24 1198.52,927.24 1189.4,936.36 1189.4,947.59 1189.4,958.82 1198.52,967.94 1209.76,967.94 1216.94,967.94 1223.27,964.21 1226.89,958.58 L 1214.12,958.58 C 1213.57,958.58 1212.85,958.28 1212.46,957.89 1212.07,957.51 1211.77,956.81 1211.77,956.26 L 1211.77,948.84 C 1211.77,948.23 1212.01,947.64 1212.44,947.21 1212.88,946.78 1213.48,946.54 1214.1,946.54 Z M 238.63,947.83 C 239.17,948.63 239.29,949.88 238.91,950.76 230.18,971.03 210.02,985.23 186.57,985.23 155.13,985.23 129.6,959.7 129.6,928.26 129.6,896.82 155.13,871.29 186.57,871.29 209.97,871.29 230.09,885.43 238.85,905.62 239.28,906.6 239.14,907.74 238.55,908.62 237.96,909.51 237.05,909.94 235.98,909.94 L 213.99,909.94 C 213.45,909.94 212.97,909.8 212.56,909.59 212.14,909.39 211.81,909.11 211.49,908.71 205.69,901.33 196.68,896.58 186.57,896.58 169.08,896.58 154.89,910.77 154.89,928.26 154.89,945.75 169.08,959.94 186.57,959.94 196.74,959.94 205.8,955.14 211.59,947.68 211.88,947.32 212.25,946.99 212.66,946.79 213.07,946.58 213.61,946.44 214.07,946.44 L 236.04,946.44 C 237,946.44 238.1,947.03 238.63,947.83 Z M 337.18,937.8 L 359.71,971.2 359.71,980.81 C 359.71,981.57 359.39,982.22 358.74,982.77 358.09,983.32 357.32,983.59 356.43,983.59 L 340.47,983.59 C 339.58,983.59 338.81,983.32 338.16,982.77 337.51,982.22 337.18,981.57 337.18,980.81 L 337.18,937.8 Z M 439,937.8 L 461.53,971.2 461.53,980.81 C 461.53,981.57 461.2,982.22 460.55,982.77 459.9,983.32 459.13,983.59 458.24,983.59 L 442.29,983.59 C 441.39,983.59 440.62,983.32 439.97,982.77 439.32,982.22 439,981.57 439,980.81 L 439,937.8 Z M 337.29,913.68 C 337.44,913.22 337.73,912.81 338.16,912.45 338.81,911.9 339.58,911.62 340.47,911.62 L 354.6,911.62 C 356.87,911.62 358.62,912.55 359.84,914.4 L 379.56,942.88 399.3,914.4 C 400.51,912.55 402.26,911.62 404.53,911.62 L 418.66,911.62 C 419.55,911.62 420.32,911.9 420.97,912.45 421.62,913 421.95,913.65 421.95,914.4 L 421.95,980.81 C 421.95,981.57 421.62,982.22 420.97,982.77 420.32,983.32 419.55,983.59 418.66,983.59 L 402.71,983.59 C 401.81,983.59 401.04,983.32 400.39,982.77 399.74,982.22 399.42,981.57 399.42,980.81 L 399.42,946.79 387.97,963.75 C 387.4,964.5 386.77,965.12 386.08,965.6 385.39,966.08 384.52,966.32 383.46,966.32 L 375.67,966.32 C 374.61,966.32 373.74,966.08 373.05,965.6 372.36,965.12 371.73,964.5 371.16,963.75 L 359.71,946.79 359.71,946.92 337.29,913.68 Z M 439.11,913.68 C 439.25,913.22 439.54,912.81 439.97,912.45 440.62,911.9 441.39,911.62 442.29,911.62 L 456.41,911.62 C 458.69,911.62 460.43,912.55 461.65,914.4 L 481.38,942.88 501.11,914.4 C 502.33,912.55 504.07,911.62 506.35,911.62 L 520.47,911.62 C 521.37,911.62 522.14,911.9 522.79,912.45 523.44,913 523.76,913.65 523.76,914.4 L 523.76,980.81 C 523.76,981.57 523.44,982.22 522.79,982.77 522.14,983.32 521.37,983.59 520.47,983.59 L 504.52,983.59 C 503.63,983.59 502.86,983.32 502.21,982.77 501.56,982.22 501.23,981.57 501.23,980.81 L 501.23,946.79 489.78,963.75 C 489.22,964.5 488.59,965.12 487.9,965.6 487.21,966.08 486.33,966.32 485.28,966.32 L 477.48,966.32 C 476.43,966.32 475.55,966.08 474.86,965.6 474.17,965.12 473.55,964.5 472.98,963.75 L 461.53,946.79 461.53,946.92 439.11,913.68 Z M 943.77,983.57 C 942.61,983.57 941.61,983.15 940.76,982.31 939.92,981.46 939.5,980.46 939.5,979.3 L 939.5,877.13 C 939.5,875.97 939.92,874.97 940.76,874.12 941.61,873.28 942.61,872.86 943.77,872.86 L 964.49,872.86 C 965.65,872.86 966.65,873.28 967.49,874.12 968.34,874.97 968.76,875.97 968.76,877.13 L 968.76,979.3 C 968.76,980.46 968.34,981.46 967.49,982.31 966.65,983.15 965.65,983.57 964.49,983.57 L 943.77,983.57 Z M 988.46,913.66 C 988.61,913.2 988.9,912.79 989.33,912.43 989.98,911.88 990.75,911.61 991.64,911.61 L 1005.77,911.61 C 1008.04,911.61 1009.79,912.53 1011.01,914.38 L 1030.74,942.86 1050.47,914.38 C 1051.68,912.53 1053.43,911.61 1055.7,911.61 L 1069.83,911.61 C 1070.72,911.61 1071.49,911.88 1072.15,912.43 1072.79,912.98 1073.12,913.63 1073.12,914.38 L 1073.12,980.8 C 1073.12,981.55 1072.79,982.2 1072.15,982.75 1071.49,983.3 1070.72,983.57 1069.83,983.57 L 1053.88,983.57 C 1052.98,983.57 1052.21,983.3 1051.56,982.75 1050.91,982.2 1050.59,981.55 1050.59,980.8 L 1050.59,946.77 1039.14,963.73 C 1038.57,964.48 1037.94,965.1 1037.25,965.58 1036.56,966.06 1035.69,966.3 1034.63,966.3 L 1026.84,966.3 C 1025.78,966.3 1024.91,966.06 1024.22,965.58 1023.53,965.1 1022.9,964.48 1022.33,963.73 L 1010.89,946.77 1010.89,946.9 988.46,913.66 Z M 1275.43,967.12 L 1322.53,967.12 C 1323.42,967.12 1324.2,967.4 1324.85,967.95 1325.49,968.49 1325.82,969.14 1325.82,969.9 L 1325.82,980.8 C 1325.82,981.55 1325.49,982.2 1324.85,982.75 1324.2,983.3 1323.42,983.57 1322.53,983.57 L 1264.8,983.57 C 1263.91,983.57 1263.14,983.3 1262.49,982.75 1261.84,982.2 1261.51,981.55 1261.51,980.8 L 1261.51,946.49 1275.43,967.12 Z M 988.35,937.78 L 1010.89,971.18 1010.89,980.8 C 1010.89,981.55 1010.56,982.2 1009.91,982.75 1009.26,983.3 1008.49,983.57 1007.6,983.57 L 991.64,983.57 C 990.75,983.57 989.98,983.3 989.33,982.75 988.68,982.2 988.35,981.55 988.35,980.8 L 988.35,937.78 Z M 1118.46,912.03 C 1118.91,911.77 1119.44,911.61 1120.04,911.61 L 1125.36,911.61 C 1125.87,911.61 1126.43,911.76 1126.87,912.02 1127.31,912.27 1127.75,912.71 1128,913.15 1133.75,923.11 1159.26,967.3 1166.04,979.04 1166.57,979.95 1166.62,981.12 1166.1,982.03 1165.58,982.94 1164.51,983.57 1163.46,983.57 L 1147.68,983.57 C 1147.1,983.57 1146.54,983.39 1146.1,983.13 1145.67,982.86 1145.35,982.53 1145.05,982 1143.95,980.09 1139.33,972.1 1139.33,972.1 L 1106.02,972.1 C 1106.02,972.1 1101.41,980.08 1100.31,982 1100.03,982.47 1099.78,982.83 1099.31,983.11 1098.81,983.41 1098.26,983.57 1097.68,983.57 L 1081.93,983.57 C 1080.87,983.57 1079.96,983.15 1079.42,982.25 1078.88,981.34 1078.75,980.02 1079.28,979.1 1083.89,971.11 1104.4,935.59 1104.4,935.59 L 1115.75,955.25 1115.72,955.3 1129.63,955.3 1111.33,923.59 C 1111.33,923.59 1116.2,915.16 1117.35,913.16 1117.65,912.64 1118.01,912.29 1118.46,912.03 Z M 554.73,967.07 L 601.83,967.07 C 602.72,967.07 603.49,967.34 604.14,967.89 604.79,968.44 605.12,969.09 605.12,969.85 L 605.12,980.75 C 605.12,981.5 604.79,982.15 604.14,982.7 603.49,983.25 602.72,983.52 601.83,983.52 L 544.1,983.52 C 543.21,983.52 542.44,983.25 541.79,982.7 541.14,982.15 540.81,981.5 540.81,980.75 L 540.81,946.44 554.73,967.07 Z M 285.21,927.24 C 296.44,927.24 305.56,936.36 305.56,947.59 305.56,958.82 296.44,967.94 285.21,967.94 273.98,967.94 264.86,958.82 264.86,947.59 264.86,936.36 273.98,927.24 285.21,927.24 Z M 1291.53,939.16 L 1318.87,939.16 C 1319.77,939.16 1320.54,939.43 1321.19,939.98 1321.84,940.53 1322.16,941.18 1322.16,941.94 L 1322.16,952.83 C 1322.16,953.59 1321.84,954.24 1321.19,954.79 1320.54,955.33 1319.77,955.61 1318.87,955.61 L 1286.61,955.61 1261.51,918.4 1261.51,914.38 C 1261.51,913.63 1261.84,912.98 1262.49,912.43 1263.14,911.88 1263.91,911.61 1264.8,911.61 L 1321.55,911.61 C 1322.45,911.61 1323.22,911.88 1323.87,912.43 1324.52,912.98 1324.84,913.63 1324.84,914.38 L 1324.84,925.28 C 1324.84,926.03 1324.52,926.69 1323.87,927.23 1323.22,927.78 1322.45,928.06 1321.55,928.06 L 1284.04,928.06 1291.53,939.16 Z M 570.83,939.11 L 598.17,939.11 C 599.06,939.11 599.84,939.38 600.49,939.93 601.13,940.48 601.46,941.13 601.46,941.88 L 601.46,952.78 C 601.46,953.54 601.13,954.19 600.49,954.73 599.84,955.28 599.06,955.56 598.17,955.56 L 565.9,955.56 540.81,918.35 540.81,914.33 C 540.81,913.58 541.13,912.93 541.78,912.38 542.43,911.83 543.2,911.56 544.1,911.56 L 600.85,911.56 C 601.74,911.56 602.51,911.83 603.16,912.38 603.81,912.93 604.14,913.58 604.14,914.33 L 604.14,925.23 C 604.14,925.98 603.81,926.63 603.16,927.18 602.51,927.73 601.74,928 600.85,928 L 563.34,928 570.83,939.11 Z M 881.88,601.65 C 881.26,602.85 879.89,603.96 878.37,604.2 859.75,607.13 840.66,608.66 821.21,608.66 729.14,608.66 644.98,574.49 580.73,518.16 579.8,517.34 579.21,516.19 579.01,515.12 578.82,514.05 578.85,512.97 579.57,511.73 L 719.71,269 C 720.86,267 722.96,266.24 724.54,266.25 726.12,266.26 728.42,267.48 729.19,269.06 L 882.09,596.95 C 882.93,598.94 882.5,600.44 881.88,601.65 Z M 1146.02,405.96 C 1146.67,407.18 1146.59,409.13 1145.96,410.36 1100.11,499.41 1018.71,567.21 920.56,594.95 918.9,595.42 917.8,595.14 916.76,594.69 915.72,594.23 914.59,592.84 914.31,592.22 876.95,512.08 840.16,431.93 802.25,351.78 801.26,349.68 801.69,347.38 802.61,346.11 803.53,344.83 805.63,343.79 807.77,344.11 L 1142.03,403.05 C 1144.61,403.67 1145.36,404.74 1146.02,405.96 Z M 472.79,137.91 C 473.59,137.18 474.65,136.62 475.96,136.49 531.37,131.18 651.05,138.13 711.49,163.44 718.1,166.2 723.47,172.08 725.62,178.91 727.77,185.74 726.7,194.7 723.03,200.84 L 558.01,486.68 C 557.13,488.22 555.44,489.06 554.07,489.21 552.69,489.35 550.95,488.89 549.75,487.56 491.6,422.89 456.19,337.37 456.19,243.64 456.19,211.79 467.88,156.06 471.2,140.84 471.5,139.49 472,138.63 472.79,137.91 Z M 895.49,325.13 C 895.08,323.68 895.16,321.28 896.63,319.81 L 1138.98,77.46 C 1140.2,76.38 1142.06,75.99 1143.66,76.31 1144.98,76.57 1146.33,77.62 1146.94,78.82 1172.07,128.34 1186.23,184.35 1186.23,243.64 1186.23,288.27 1178.2,331.04 1163.51,370.59 1163.11,371.67 1162.3,372.78 1161.32,373.37 1160.33,373.95 1159.1,374.42 1157.59,374.11 L 899.09,328.53 C 897.16,328.11 895.9,326.58 895.49,325.13 Z M 895.49,325.13" />
    </g>
    <g id="c1iCanvas-orange">
        <path id="c1iCanvas-bezier2" stroke="none" fill="rgb(34, 255, 29)" d="M 706.38,950.49 C 706.38,950.45 706.4,914.3 706.4,914.3 706.4,913.55 706.7,912.91 707.31,912.37 707.92,911.83 708.64,911.56 709.48,911.56 L 724.42,911.56 C 725.26,911.56 725.98,911.83 726.59,912.37 727.2,912.91 727.5,913.55 727.5,914.3 L 727.5,954.75 C 727.5,960.83 726.06,966.03 723.17,970.36 720.28,974.68 716.23,977.96 711.02,980.19 705.81,982.42 699.74,983.54 692.82,983.54 685.83,983.54 679.72,982.42 674.51,980.19 669.3,977.96 665.27,974.68 662.42,970.36 659.57,966.03 658.14,960.83 658.14,954.75 L 658.14,914.3 C 658.14,913.55 658.45,912.91 659.06,912.37 659.66,911.83 660.39,911.56 661.22,911.56 L 676.17,911.56 C 677,911.56 677.73,911.83 678.33,912.37 678.94,912.91 679.25,913.55 679.25,914.3 679.25,914.3 679.27,950.45 679.27,950.49 679.27,957.14 685.34,962.54 692.82,962.54 700.3,962.54 706.38,957.14 706.38,950.49 Z M 74.69,968.83 C 74.69,960.71 68.1,954.12 59.98,954.12 51.86,954.12 45.27,960.71 45.27,968.83 45.27,976.95 51.86,983.54 59.98,983.54 68.1,983.54 74.69,976.95 74.69,968.83 Z M 835.11,967.08 L 882.21,967.08 C 883.1,967.08 883.87,967.35 884.52,967.9 885.17,968.45 885.5,969.1 885.5,969.85 L 885.5,980.75 C 885.5,981.5 885.17,982.15 884.52,982.7 883.87,983.25 883.1,983.53 882.21,983.53 L 824.48,983.53 C 823.59,983.53 822.82,983.25 822.17,982.7 821.52,982.15 821.19,981.5 821.19,980.75 L 821.19,946.45 835.11,967.08 Z M 739.39,937.73 L 761.92,971.13 761.92,980.75 C 761.92,981.5 761.6,982.15 760.95,982.7 760.3,983.25 759.53,983.53 758.63,983.53 L 742.68,983.53 C 741.79,983.53 741.02,983.25 740.37,982.7 739.72,982.15 739.39,981.5 739.39,980.75 L 739.39,937.73 Z M 786.22,949.37 L 786.22,914.34 C 786.22,913.58 786.54,912.93 787.19,912.38 787.84,911.83 788.61,911.56 789.5,911.56 L 805.46,911.56 C 806.35,911.56 807.12,911.83 807.77,912.38 808.42,912.93 808.75,913.58 808.75,914.34 L 808.75,980.75 C 808.75,981.5 808.42,982.15 807.77,982.7 807.12,983.25 806.35,983.53 805.46,983.53 L 789.5,983.53 C 789.07,983.53 788.66,983.46 788.28,983.33 787.87,983.21 787.5,983.04 787.17,982.81 786.48,982.33 785.85,981.71 785.28,980.96 L 739.5,913.61 C 739.65,913.16 739.94,912.75 740.37,912.38 741.02,911.83 741.79,911.56 742.68,911.56 L 756.81,911.56 C 759.08,911.56 760.83,912.49 762.05,914.34 L 786.22,949.37 Z M 13.58,954.17 C 13.92,954.15 14.25,954.13 14.59,954.13 22.71,954.13 29.3,960.73 29.3,968.84 29.3,976.62 23.25,982.99 15.62,983.52 L 15.59,983.48 C 15.26,983.51 14.93,983.52 14.59,983.52 13.31,983.52 12.07,983.35 10.89,983.05 L 0,966.91 C 0.89,960.02 6.55,954.62 13.56,954.13 L 13.58,954.17 Z M 104.35,954.13 L 118.6,975.26 C 116.2,980.15 111.18,983.52 105.38,983.52 97.26,983.52 90.67,976.93 90.67,968.81 90.67,961.04 96.71,954.66 104.35,954.13 Z M 851.21,939.11 L 878.56,939.11 C 879.45,939.11 880.22,939.39 880.87,939.94 881.52,940.48 881.84,941.13 881.84,941.89 L 881.84,952.79 C 881.84,953.54 881.52,954.19 880.87,954.74 880.22,955.29 879.45,955.56 878.56,955.56 L 846.29,955.56 821.19,918.36 821.19,914.34 C 821.19,913.58 821.52,912.93 822.17,912.38 822.82,911.83 823.59,911.56 824.48,911.56 L 881.24,911.56 C 882.13,911.56 882.9,911.83 883.55,912.38 884.2,912.93 884.52,913.58 884.52,914.34 L 884.52,925.23 C 884.52,925.99 884.2,926.64 883.55,927.19 882.9,927.74 882.13,928.01 881.24,928.01 L 843.73,928.01 851.21,939.11 Z M 0.24,440.62 C -0.63,435.04 0.95,426.5 4.11,421.82 82.49,305.82 182.77,212.77 301.35,143.46 304.3,141.74 307.22,143.33 308.19,144.76 309.16,146.18 310.3,149.6 307.18,152 182.31,247.91 118.96,331.42 67.03,425.17 65.77,427.44 65.17,430.92 65.63,433.47 66.08,436.02 67.73,438.85 69.74,440.48 399.69,709.42 841.46,775.24 1318.45,601.37 1322.3,599.97 1324.72,602.51 1325.43,604.09 1326.13,605.66 1326.22,609.27 1322.69,610.83 845.36,821.09 300.02,724.55 8.87,456.46 4.71,452.63 1.1,446.21 0.23,440.62 L 0.24,440.62 Z M 939.26,229.03 C 937.81,228.6 936.03,227.03 935.75,225.31 918.51,121.57 763.6,49.21 550.51,49.21 547.39,49.21 545.74,46.64 545.51,44.93 545.27,43.23 545.68,39.9 549.11,38.96 628.7,17.18 724.08,-0 827.67,-0 952.04,-0 1047.78,20.99 1117.74,44.09 1119.48,44.66 1120.79,46.22 1121.16,47.61 1121.53,48.99 1121.21,51.12 1119.95,52.38 1086.61,85.72 975,197.33 944.44,227.89 942.74,229.59 940.71,229.46 939.26,229.03 Z M 939.26,229.03" />
    </g>
</svg>
