<?xml version="1.0" encoding="UTF-8"?>
<!DOCTYPE svg PUBLIC "-//W3C//DTD SVG 1.1//EN" "http://www.w3.org/Graphics/SVG/1.1/DTD/svg11.dtd">
<svg version="1.1" xmlns="http://www.w3.org/2000/svg" xmlns:xlink="http://www.w3.org/1999/xlink" width="1326" height="115"  xml:space="preserve" id="c1i_textCanvas">
    <!-- Generated by PaintCode - http://www.paintcodeapp.com -->
    <g id="c1i_textCanvas-group">
        <path id="c1i_textCanvas-bezier" fill-rule="evenodd" stroke="none" fill="rgb(130, 130, 130)" d="M 285.07,37.9 C 306.26,37.9 323.47,55.11 323.47,76.3 323.47,97.49 306.26,114.7 285.07,114.7 263.87,114.7 246.67,97.49 246.67,76.3 246.67,55.11 263.87,37.9 285.07,37.9 Z M 1213.96,75.25 L 1245.7,75.25 C 1246.33,75.25 1246.92,75.53 1247.36,75.97 1247.82,76.42 1248.03,76.94 1248.01,77.58 1247.33,98.18 1230.39,114.7 1209.62,114.7 1188.42,114.7 1171.21,97.49 1171.21,76.3 1171.21,55.11 1188.42,37.9 1209.62,37.9 1224.92,37.9 1238.14,46.86 1244.31,59.82 1244.68,60.59 1244.62,61.46 1244.18,62.19 1243.73,62.91 1243.09,63.18 1242.24,63.18 L 1226.22,63.18 C 1225.83,63.18 1225.54,63.11 1225.25,62.99 1224.97,62.86 1224.72,62.66 1224.49,62.41 1220.77,58.43 1215.48,55.95 1209.62,55.95 1198.38,55.95 1189.26,65.07 1189.26,76.3 1189.26,87.53 1198.38,96.65 1209.62,96.65 1216.8,96.65 1223.13,92.92 1226.75,87.29 L 1213.98,87.29 C 1213.43,87.29 1212.71,86.99 1212.32,86.6 1211.93,86.22 1211.63,85.52 1211.63,84.97 L 1211.63,77.55 C 1211.63,76.94 1211.87,76.35 1212.3,75.92 1212.74,75.49 1213.34,75.25 1213.96,75.25 Z M 238.49,76.54 C 239.02,77.34 239.15,78.59 238.77,79.47 230.04,99.74 209.87,113.94 186.42,113.94 154.98,113.94 129.45,88.41 129.45,56.97 129.45,25.53 154.98,-0 186.42,-0 209.82,-0 229.94,14.14 238.71,34.33 239.13,35.31 238.99,36.45 238.4,37.33 237.81,38.22 236.9,38.65 235.83,38.65 L 213.85,38.65 C 213.31,38.65 212.83,38.51 212.41,38.3 211.99,38.1 211.66,37.82 211.35,37.42 205.54,30.04 196.53,25.29 186.42,25.29 168.94,25.29 154.74,39.48 154.74,56.97 154.74,74.46 168.94,88.65 186.42,88.65 196.59,88.65 205.65,83.85 211.45,76.39 211.73,76.03 212.1,75.7 212.51,75.5 212.93,75.29 213.47,75.15 213.93,75.15 L 235.89,75.15 C 236.85,75.15 237.96,75.74 238.49,76.54 Z M 337.04,66.51 L 359.57,99.91 359.57,109.52 C 359.57,110.28 359.24,110.93 358.59,111.48 357.94,112.03 357.17,112.3 356.28,112.3 L 340.33,112.3 C 339.43,112.3 338.66,112.03 338.01,111.48 337.36,110.93 337.04,110.28 337.04,109.52 L 337.04,66.51 Z M 438.85,66.51 L 461.38,99.91 461.38,109.52 C 461.38,110.28 461.06,110.93 460.41,111.48 459.76,112.03 458.99,112.3 458.09,112.3 L 442.14,112.3 C 441.25,112.3 440.48,112.03 439.83,111.48 439.18,110.93 438.85,110.28 438.85,109.52 L 438.85,66.51 Z M 337.15,42.39 C 337.29,41.93 337.58,41.52 338.01,41.16 338.66,40.61 339.43,40.33 340.33,40.33 L 354.45,40.33 C 356.73,40.33 358.47,41.26 359.69,43.11 L 379.42,71.59 399.15,43.11 C 400.37,41.26 402.11,40.33 404.39,40.33 L 418.51,40.33 C 419.41,40.33 420.18,40.61 420.83,41.16 421.48,41.71 421.8,42.36 421.8,43.11 L 421.8,109.52 C 421.8,110.28 421.48,110.93 420.83,111.48 420.18,112.03 419.41,112.3 418.51,112.3 L 402.56,112.3 C 401.67,112.3 400.89,112.03 400.25,111.48 399.6,110.93 399.27,110.28 399.27,109.52 L 399.27,75.5 387.82,92.46 C 387.25,93.21 386.63,93.83 385.94,94.31 385.25,94.79 384.37,95.03 383.32,95.03 L 375.52,95.03 C 374.47,95.03 373.59,94.79 372.9,94.31 372.21,93.83 371.58,93.21 371.02,92.46 L 359.57,75.5 359.57,75.63 337.15,42.39 Z M 438.96,42.39 C 439.11,41.93 439.39,41.52 439.83,41.16 440.48,40.61 441.25,40.33 442.14,40.33 L 456.27,40.33 C 458.54,40.33 460.29,41.26 461.5,43.11 L 481.23,71.59 500.96,43.11 C 502.18,41.26 503.93,40.33 506.2,40.33 L 520.33,40.33 C 521.22,40.33 521.99,40.61 522.64,41.16 523.29,41.71 523.62,42.36 523.62,43.11 L 523.62,109.52 C 523.62,110.28 523.29,110.93 522.64,111.48 521.99,112.03 521.22,112.3 520.33,112.3 L 504.37,112.3 C 503.48,112.3 502.71,112.03 502.06,111.48 501.41,110.93 501.09,110.28 501.09,109.52 L 501.09,75.5 489.64,92.46 C 489.07,93.21 488.44,93.83 487.75,94.31 487.06,94.79 486.19,95.03 485.13,95.03 L 477.34,95.03 C 476.28,95.03 475.41,94.79 474.72,94.31 474.03,93.83 473.4,93.21 472.83,92.46 L 461.38,75.5 461.38,75.63 438.96,42.39 Z M 943.63,112.28 C 942.47,112.28 941.47,111.86 940.62,111.02 939.78,110.17 939.36,109.17 939.36,108.01 L 939.36,5.84 C 939.36,4.68 939.78,3.68 940.62,2.83 941.47,1.99 942.47,1.57 943.63,1.57 L 964.35,1.57 C 965.51,1.57 966.51,1.99 967.35,2.83 968.2,3.68 968.62,4.68 968.62,5.84 L 968.62,108.01 C 968.62,109.17 968.2,110.17 967.35,111.02 966.51,111.86 965.51,112.28 964.35,112.28 L 943.63,112.28 Z M 988.32,42.37 C 988.47,41.91 988.76,41.5 989.19,41.14 989.84,40.59 990.61,40.32 991.5,40.32 L 1005.63,40.32 C 1007.9,40.32 1009.65,41.24 1010.87,43.09 L 1030.6,71.57 1050.33,43.09 C 1051.54,41.24 1053.29,40.32 1055.56,40.32 L 1069.69,40.32 C 1070.58,40.32 1071.35,40.59 1072.01,41.14 1072.65,41.69 1072.98,42.34 1072.98,43.09 L 1072.98,109.51 C 1072.98,110.26 1072.65,110.91 1072.01,111.46 1071.35,112.01 1070.58,112.28 1069.69,112.28 L 1053.74,112.28 C 1052.84,112.28 1052.07,112.01 1051.42,111.46 1050.77,110.91 1050.45,110.26 1050.45,109.51 L 1050.45,75.48 1039,92.44 C 1038.43,93.19 1037.8,93.81 1037.11,94.29 1036.42,94.77 1035.55,95.01 1034.49,95.01 L 1026.7,95.01 C 1025.64,95.01 1024.77,94.77 1024.08,94.29 1023.39,93.81 1022.76,93.19 1022.19,92.44 L 1010.75,75.48 1010.75,75.61 988.32,42.37 Z M 1275.29,95.83 L 1322.39,95.83 C 1323.28,95.83 1324.06,96.11 1324.71,96.66 1325.35,97.2 1325.68,97.85 1325.68,98.61 L 1325.68,109.51 C 1325.68,110.26 1325.35,110.91 1324.71,111.46 1324.06,112.01 1323.28,112.28 1322.39,112.28 L 1264.66,112.28 C 1263.77,112.28 1263,112.01 1262.35,111.46 1261.7,110.91 1261.37,110.26 1261.37,109.51 L 1261.37,75.2 1275.29,95.83 Z M 988.21,66.49 L 1010.75,99.89 1010.75,109.51 C 1010.75,110.26 1010.42,110.91 1009.77,111.46 1009.12,112.01 1008.35,112.28 1007.46,112.28 L 991.5,112.28 C 990.61,112.28 989.84,112.01 989.19,111.46 988.54,110.91 988.21,110.26 988.21,109.51 L 988.21,66.49 Z M 1118.32,40.74 C 1118.77,40.48 1119.3,40.32 1119.9,40.32 L 1125.22,40.32 C 1125.73,40.32 1126.29,40.47 1126.73,40.73 1127.17,40.98 1127.61,41.42 1127.86,41.86 1133.61,51.82 1159.12,96.01 1165.9,107.75 1166.43,108.66 1166.48,109.83 1165.96,110.74 1165.44,111.65 1164.37,112.28 1163.32,112.28 L 1147.54,112.28 C 1146.96,112.28 1146.4,112.1 1145.96,111.84 1145.53,111.57 1145.21,111.24 1144.91,110.71 1143.81,108.8 1139.19,100.81 1139.19,100.81 L 1105.88,100.81 C 1105.88,100.81 1101.27,108.79 1100.17,110.71 1099.89,111.18 1099.64,111.54 1099.17,111.82 1098.67,112.12 1098.12,112.28 1097.54,112.28 L 1081.79,112.28 C 1080.73,112.28 1079.82,111.86 1079.28,110.96 1078.74,110.05 1078.61,108.73 1079.14,107.81 1083.75,99.82 1104.26,64.3 1104.26,64.3 L 1115.61,83.96 1115.58,84.01 1129.49,84.01 1111.19,52.3 C 1111.19,52.3 1116.06,43.87 1117.21,41.87 1117.51,41.35 1117.87,41 1118.32,40.74 Z M 554.58,95.78 L 601.68,95.78 C 602.58,95.78 603.35,96.05 604,96.6 604.65,97.15 604.97,97.8 604.97,98.56 L 604.97,109.46 C 604.97,110.21 604.65,110.86 604,111.41 603.35,111.96 602.58,112.23 601.68,112.23 L 543.96,112.23 C 543.06,112.23 542.29,111.96 541.64,111.41 540.99,110.86 540.67,110.21 540.67,109.46 L 540.67,75.15 554.58,95.78 Z M 285.07,55.95 C 296.3,55.95 305.42,65.07 305.42,76.3 305.42,87.53 296.3,96.65 285.07,96.65 273.83,96.65 264.72,87.53 264.72,76.3 264.72,65.07 273.83,55.95 285.07,55.95 Z M 1291.39,67.87 L 1318.73,67.87 C 1319.63,67.87 1320.4,68.14 1321.05,68.69 1321.7,69.24 1322.02,69.89 1322.02,70.65 L 1322.02,81.54 C 1322.02,82.3 1321.7,82.95 1321.05,83.5 1320.4,84.04 1319.63,84.32 1318.73,84.32 L 1286.47,84.32 1261.37,47.11 1261.37,43.09 C 1261.37,42.34 1261.7,41.69 1262.35,41.14 1263,40.59 1263.77,40.32 1264.66,40.32 L 1321.41,40.32 C 1322.31,40.32 1323.08,40.59 1323.73,41.14 1324.38,41.69 1324.7,42.34 1324.7,43.09 L 1324.7,53.99 C 1324.7,54.74 1324.38,55.4 1323.73,55.94 1323.08,56.49 1322.31,56.77 1321.41,56.77 L 1283.9,56.77 1291.39,67.87 Z M 570.68,67.82 L 598.03,67.82 C 598.92,67.82 599.69,68.09 600.34,68.64 600.99,69.19 601.31,69.84 601.31,70.59 L 601.31,81.49 C 601.31,82.25 600.99,82.9 600.34,83.44 599.69,83.99 598.92,84.27 598.03,84.27 L 565.76,84.27 540.66,47.06 540.66,43.04 C 540.66,42.29 540.99,41.64 541.64,41.09 542.29,40.54 543.06,40.27 543.95,40.27 L 600.7,40.27 C 601.6,40.27 602.37,40.54 603.02,41.09 603.67,41.64 603.99,42.29 603.99,43.04 L 603.99,53.94 C 603.99,54.69 603.67,55.34 603.02,55.89 602.37,56.44 601.6,56.71 600.7,56.71 L 563.19,56.71 570.68,67.82 Z M 570.68,67.82" />
    </g>
    <g id="c1i_textCanvas-group2">
        <path id="c1i_textCanvas-bezier2" stroke="none" fill="rgb(150, 255, 70)" d="M 706.23,79.2 C 706.23,79.16 706.25,43.01 706.25,43.01 706.25,42.26 706.56,41.62 707.16,41.08 707.77,40.54 708.5,40.27 709.33,40.27 L 724.28,40.27 C 725.11,40.27 725.84,40.54 726.44,41.08 727.05,41.62 727.36,42.26 727.36,43.01 L 727.36,83.46 C 727.36,89.54 725.91,94.74 723.02,99.07 720.13,103.39 716.08,106.67 710.87,108.9 705.66,111.13 699.6,112.25 692.68,112.25 685.68,112.25 679.58,111.13 674.37,108.9 669.16,106.67 665.13,103.39 662.27,99.07 659.42,94.74 658,89.54 658,83.46 L 658,43.01 C 658,42.26 658.3,41.62 658.91,41.08 659.52,40.54 660.24,40.27 661.08,40.27 L 676.02,40.27 C 676.86,40.27 677.58,40.54 678.19,41.08 678.8,41.62 679.1,42.26 679.1,43.01 679.1,43.01 679.12,79.16 679.12,79.2 679.12,85.85 685.2,91.25 692.68,91.25 700.16,91.25 706.23,85.85 706.23,79.2 Z M 74.55,97.54 C 74.55,89.42 67.95,82.83 59.84,82.83 51.72,82.83 45.13,89.42 45.13,97.54 45.13,105.66 51.72,112.25 59.84,112.25 67.95,112.25 74.55,105.66 74.55,97.54 Z M 834.96,95.79 L 882.06,95.79 C 882.96,95.79 883.73,96.06 884.38,96.61 885.03,97.16 885.35,97.81 885.35,98.56 L 885.35,109.46 C 885.35,110.21 885.03,110.86 884.38,111.41 883.73,111.96 882.96,112.24 882.06,112.24 L 824.34,112.24 C 823.44,112.24 822.67,111.96 822.02,111.41 821.37,110.86 821.05,110.21 821.05,109.46 L 821.05,75.16 834.96,95.79 Z M 739.25,66.44 L 761.78,99.84 761.78,109.46 C 761.78,110.21 761.45,110.86 760.8,111.41 760.15,111.96 759.38,112.24 758.49,112.24 L 742.54,112.24 C 741.64,112.24 740.87,111.96 740.22,111.41 739.57,110.86 739.25,110.21 739.25,109.46 L 739.25,66.44 Z M 786.07,78.08 L 786.07,43.05 C 786.07,42.29 786.4,41.64 787.05,41.09 787.69,40.54 788.47,40.27 789.36,40.27 L 805.31,40.27 C 806.21,40.27 806.98,40.54 807.63,41.09 808.28,41.64 808.6,42.29 808.6,43.05 L 808.6,109.46 C 808.6,110.21 808.28,110.86 807.63,111.41 806.98,111.96 806.21,112.24 805.31,112.24 L 789.36,112.24 C 788.92,112.24 788.52,112.17 788.14,112.04 787.72,111.92 787.35,111.75 787.02,111.52 786.33,111.04 785.7,110.42 785.14,109.67 L 739.36,42.32 C 739.5,41.87 739.79,41.46 740.22,41.09 740.87,40.54 741.64,40.27 742.54,40.27 L 756.66,40.27 C 758.94,40.27 760.68,41.2 761.9,43.05 L 786.07,78.08 Z M 851.07,67.82 L 878.41,67.82 C 879.3,67.82 880.07,68.1 880.72,68.65 881.37,69.19 881.7,69.84 881.7,70.6 L 881.7,81.5 C 881.7,82.25 881.37,82.9 880.72,83.45 880.07,84 879.3,84.27 878.41,84.27 L 846.14,84.27 821.05,47.07 821.05,43.05 C 821.05,42.29 821.37,41.64 822.02,41.09 822.67,40.54 823.44,40.27 824.34,40.27 L 881.09,40.27 C 881.98,40.27 882.75,40.54 883.4,41.09 884.05,41.64 884.38,42.29 884.38,43.05 L 884.38,53.94 C 884.38,54.7 884.05,55.35 883.4,55.9 882.75,56.45 881.98,56.72 881.09,56.72 L 843.58,56.72 851.07,67.82 Z M 851.07,67.82" />
    </g>
    <g id="c1i_textCanvas-group3">
        <circle id="c1i_textCanvas-oval" stroke="none" fill="rgb(150, 255, 70)" cx="14.7" cy="97.28" r="14.7" />
    </g>
    <g id="c1i_textCanvas-group4">
        <circle id="c1i_textCanvas-oval2" stroke="none" fill="rgb(150, 255, 70)" cx="105.05" cy="96.98" r="14.7" />
    </g>
</svg>
