<?xml version="1.0" encoding="UTF-8" standalone="no"?>
<!DOCTYPE svg PUBLIC "-//W3C//DTD SVG 1.1//EN" "http://www.w3.org/Graphics/SVG/1.1/DTD/svg11.dtd">
<svg width="100%" height="100%" viewBox="0 0 1326 726" version="1.1" xmlns="http://www.w3.org/2000/svg" xmlns:xlink="http://www.w3.org/1999/xlink" xml:space="preserve" xmlns:serif="http://www.serif.com/" style="fill-rule:evenodd;clip-rule:evenodd;stroke-linejoin:round;stroke-miterlimit:2;">
    <g id="Grey" transform="matrix(1,0,0,1,-69.169,-214.55)">
        <path d="M951.048,816.195C950.429,817.403 949.056,818.51 947.541,818.749C928.916,821.683 909.826,823.207 890.382,823.207C798.306,823.207 714.146,789.04 649.901,732.705C648.973,731.891 648.378,730.737 648.184,729.666C647.99,728.596 648.019,727.517 648.737,726.283L788.88,483.548C790.029,481.546 792.128,480.786 793.708,480.797C795.288,480.808 797.591,482.025 798.359,483.614L951.254,811.498C952.101,813.489 951.667,814.986 951.048,816.195ZM1215.19,620.513C1215.84,621.732 1215.76,623.684 1215.13,624.914C1169.28,713.962 1087.88,781.762 989.731,809.5C988.067,809.971 986.973,809.691 985.93,809.236C984.887,808.782 983.761,807.387 983.475,806.774C946.121,726.625 909.332,646.477 871.422,566.329C870.431,564.234 870.856,561.934 871.776,560.655C872.696,559.377 874.796,558.342 876.943,558.659L1211.2,617.598C1213.78,618.218 1214.53,619.293 1215.19,620.513ZM541.963,352.456C542.755,351.733 543.815,351.168 545.125,351.043C600.539,345.729 720.214,352.68 780.66,377.985C787.265,380.75 792.642,386.625 794.79,393.455C796.937,400.286 795.873,409.246 792.204,415.394L627.177,701.229C626.297,702.765 624.61,703.61 623.234,703.757C621.857,703.904 620.119,703.442 618.921,702.111C560.767,637.444 525.363,551.917 525.363,458.187C525.363,426.344 537.045,370.609 540.371,355.385C540.666,354.038 541.171,353.18 541.963,352.456ZM964.657,539.68C964.248,538.227 964.328,535.834 965.799,534.363L1208.15,292.012C1209.37,290.925 1211.23,290.542 1212.83,290.859C1214.15,291.12 1215.5,292.169 1216.11,293.369C1241.24,342.89 1255.4,398.897 1255.4,458.187C1255.4,502.82 1247.37,545.593 1232.68,585.139C1232.28,586.216 1231.47,587.328 1230.49,587.915C1229.5,588.502 1228.27,588.967 1226.76,588.661L968.254,543.08C966.328,542.659 965.066,541.133 964.657,539.68Z" style="fill:rgb(90,86,94);"/>
    </g>
    <g id="Orange" transform="matrix(1,0,0,1,-69.169,-214.55)">
        <path d="M69.407,655.175C68.534,649.594 70.116,641.046 73.279,636.365C151.663,520.37 251.936,427.319 370.521,358.01C373.468,356.288 376.385,357.884 377.356,359.307C378.326,360.73 379.466,364.149 376.346,366.546C251.475,462.465 188.129,545.968 136.197,639.719C134.941,641.987 134.343,645.469 134.796,648.021C135.249,650.574 136.904,653.396 138.914,655.034C468.855,923.968 910.624,989.786 1387.62,815.921C1391.47,814.518 1393.89,817.061 1394.6,818.637C1395.3,820.213 1395.39,823.82 1391.86,825.377C914.533,1035.64 369.186,939.1 78.036,671.011C73.88,667.185 70.273,660.757 69.399,655.175L69.407,655.175ZM1008.43,443.581C1006.98,443.151 1005.2,441.58 1004.92,439.861C987.675,336.122 832.768,263.763 619.676,263.763C616.563,263.763 614.908,261.195 614.676,259.485C614.444,257.776 614.853,254.446 618.282,253.507C697.869,231.728 793.249,214.55 896.84,214.55C1021.21,214.55 1116.95,235.543 1186.91,258.641C1188.65,259.215 1189.96,260.773 1190.33,262.155C1190.7,263.537 1190.38,265.668 1189.12,266.933C1155.78,300.275 1044.17,411.879 1013.61,442.44C1011.91,444.142 1009.88,444.011 1008.43,443.581Z" style="fill:rgb(241,90,34);fill-rule:nonzero;"/>
    </g>
</svg>
