<?xml version="1.0" encoding="UTF-8"?>
<!DOCTYPE svg PUBLIC "-//W3C//DTD SVG 1.1//EN" "http://www.w3.org/Graphics/SVG/1.1/DTD/svg11.dtd">
<svg version="1.1" xmlns="http://www.w3.org/2000/svg" xmlns:xlink="http://www.w3.org/1999/xlink" width="1326" height="726"  xml:space="preserve" id="c1i_logoCanvas">
    <!-- Generated by PaintCode - http://www.paintcodeapp.com -->
    <g id="c1i_logoCanvas-grey">
        <path id="c1i_logoCanvas-bezier" fill-rule="evenodd" stroke="none" fill="rgb(130, 130, 130)" d="M 881.88,601.64 C 881.26,602.85 879.89,603.96 878.37,604.2 859.75,607.13 840.66,608.66 821.21,608.66 729.14,608.66 644.98,574.49 580.73,518.15 579.8,517.34 579.21,516.19 579.01,515.12 578.82,514.05 578.85,512.97 579.57,511.73 L 719.71,269 C 720.86,267 722.96,266.24 724.54,266.25 726.12,266.26 728.42,267.47 729.19,269.06 L 882.09,596.95 C 882.93,598.94 882.5,600.44 881.88,601.64 Z M 1146.02,405.96 C 1146.67,407.18 1146.59,409.13 1145.96,410.36 1100.11,499.41 1018.71,567.21 920.56,594.95 918.9,595.42 917.8,595.14 916.76,594.69 915.72,594.23 914.59,592.84 914.31,592.22 876.95,512.08 840.16,431.93 802.25,351.78 801.26,349.68 801.69,347.38 802.61,346.1 803.53,344.83 805.63,343.79 807.77,344.11 L 1142.03,403.05 C 1144.61,403.67 1145.36,404.74 1146.02,405.96 Z M 472.79,137.91 C 473.59,137.18 474.65,136.62 475.96,136.49 531.37,131.18 651.05,138.13 711.49,163.44 718.1,166.2 723.47,172.07 725.62,178.9 727.77,185.74 726.7,194.7 723.03,200.84 L 558.01,486.68 C 557.13,488.21 555.44,489.06 554.07,489.21 552.69,489.35 550.95,488.89 549.75,487.56 491.6,422.89 456.19,337.37 456.19,243.64 456.19,211.79 467.88,156.06 471.2,140.83 471.5,139.49 472,138.63 472.79,137.91 Z M 895.49,325.13 C 895.08,323.68 895.16,321.28 896.63,319.81 L 1138.98,77.46 C 1140.2,76.38 1142.06,75.99 1143.66,76.31 1144.98,76.57 1146.33,77.62 1146.94,78.82 1172.07,128.34 1186.23,184.35 1186.23,243.64 1186.23,288.27 1178.2,331.04 1163.51,370.59 1163.11,371.67 1162.3,372.78 1161.32,373.36 1160.33,373.95 1159.1,374.42 1157.59,374.11 L 899.09,328.53 C 897.16,328.11 895.9,326.58 895.49,325.13 Z M 895.49,325.13" />
    </g>
    <g id="c1i_logoCanvas-orange">
        <path id="c1i_logoCanvas-bezier2" stroke="none" fill="rgb(149, 255, 70)" d="M 0.24,440.62 C -0.63,435.04 0.95,426.5 4.11,421.82 82.49,305.82 182.77,212.77 301.35,143.46 304.3,141.74 307.22,143.33 308.19,144.76 309.16,146.18 310.3,149.6 307.18,152 182.31,247.92 118.96,331.42 67.03,425.17 65.77,427.44 65.17,430.92 65.63,433.47 66.08,436.02 67.73,438.85 69.74,440.48 399.69,709.42 841.46,775.24 1318.45,601.37 1322.3,599.97 1324.72,602.51 1325.43,604.09 1326.13,605.66 1326.22,609.27 1322.69,610.83 845.36,821.09 300.02,724.55 8.87,456.46 4.71,452.63 1.1,446.21 0.23,440.62 L 0.24,440.62 Z M 939.26,229.03 C 937.81,228.6 936.03,227.03 935.75,225.31 918.51,121.57 763.6,49.21 550.51,49.21 547.39,49.21 545.74,46.64 545.51,44.93 545.27,43.23 545.68,39.9 549.11,38.96 628.7,17.18 724.08,-0 827.67,-0 952.04,-0 1047.78,20.99 1117.74,44.09 1119.48,44.66 1120.79,46.22 1121.16,47.61 1121.53,48.99 1121.21,51.12 1119.95,52.38 1086.61,85.72 975,197.33 944.44,227.89 942.74,229.59 940.71,229.46 939.26,229.03 Z M 939.26,229.03" />
    </g>
</svg>
