<?xml version="1.0" encoding="UTF-8" standalone="no"?>
<!DOCTYPE svg PUBLIC "-//W3C//DTD SVG 1.1//EN" "http://www.w3.org/Graphics/SVG/1.1/DTD/svg11.dtd">
<svg width="100%" height="100%" viewBox="0 0 1326 986" version="1.1" xmlns="http://www.w3.org/2000/svg" xmlns:xlink="http://www.w3.org/1999/xlink" xml:space="preserve" xmlns:serif="http://www.serif.com/" style="fill-rule:evenodd;clip-rule:evenodd;stroke-linejoin:round;stroke-miterlimit:2;">
    <g id="Grey" transform="matrix(1,0,0,1,-69.169,-214.55)">
        <path d="M354.381,1123.74C375.575,1123.74 392.781,1140.95 392.781,1162.14C392.781,1183.33 375.575,1200.54 354.381,1200.54C333.188,1200.54 315.981,1183.33 315.981,1162.14C315.981,1140.95 333.188,1123.74 354.381,1123.74ZM1283.27,1161.09L1315.01,1161.09C1315.64,1161.09 1316.23,1161.37 1316.67,1161.81C1317.13,1162.26 1317.34,1162.78 1317.32,1163.42C1316.64,1184.02 1299.7,1200.54 1278.93,1200.54C1257.73,1200.54 1240.52,1183.33 1240.52,1162.14C1240.52,1140.95 1257.73,1123.74 1278.93,1123.74C1294.23,1123.74 1307.45,1132.7 1313.62,1145.66C1313.99,1146.43 1313.93,1147.3 1313.49,1148.03C1313.04,1148.75 1312.4,1149.02 1311.55,1149.02L1295.53,1149.02C1295.14,1149.02 1294.85,1148.95 1294.56,1148.83C1294.28,1148.7 1294.03,1148.5 1293.8,1148.25C1290.08,1144.27 1284.79,1141.79 1278.93,1141.79C1267.69,1141.79 1258.57,1150.91 1258.57,1162.14C1258.57,1173.37 1267.69,1182.49 1278.93,1182.49C1286.11,1182.49 1292.44,1178.76 1296.06,1173.13L1283.29,1173.13C1282.74,1173.13 1282.02,1172.83 1281.63,1172.44C1281.24,1172.06 1280.94,1171.36 1280.94,1170.81L1280.94,1163.39C1280.94,1162.78 1281.18,1162.19 1281.61,1161.76C1282.05,1161.33 1282.65,1161.09 1283.27,1161.09ZM307.803,1162.38C308.335,1163.18 308.461,1164.43 308.081,1165.31C299.35,1185.58 279.189,1199.78 255.737,1199.78C224.295,1199.78 198.769,1174.25 198.769,1142.81C198.769,1111.37 224.295,1085.84 255.737,1085.84C279.135,1085.84 299.258,1099.98 308.022,1120.17C308.446,1121.15 308.307,1122.29 307.716,1123.17C307.125,1124.06 306.216,1124.49 305.149,1124.49L283.162,1124.49C282.623,1124.49 282.142,1124.35 281.725,1124.14C281.309,1123.94 280.978,1123.66 280.663,1123.26C274.859,1115.88 265.848,1111.13 255.737,1111.13C238.251,1111.13 224.055,1125.32 224.055,1142.81C224.055,1160.3 238.251,1174.49 255.737,1174.49C265.907,1174.49 274.964,1169.69 280.762,1162.23C281.046,1161.87 281.414,1161.54 281.828,1161.34C282.241,1161.13 282.781,1160.99 283.243,1160.99L305.208,1160.99C306.168,1160.99 307.271,1161.58 307.803,1162.38ZM406.352,1152.35L428.883,1185.75L428.883,1195.36C428.883,1196.12 428.558,1196.77 427.908,1197.32C427.259,1197.87 426.488,1198.14 425.594,1198.14L409.64,1198.14C408.747,1198.14 407.976,1197.87 407.326,1197.32C406.677,1196.77 406.352,1196.12 406.352,1195.36L406.352,1152.35ZM508.167,1152.35L530.698,1185.75L530.698,1195.36C530.698,1196.12 530.373,1196.77 529.723,1197.32C529.074,1197.87 528.302,1198.14 527.409,1198.14L511.455,1198.14C510.562,1198.14 509.791,1197.87 509.141,1197.32C508.492,1196.77 508.167,1196.12 508.167,1195.36L508.167,1152.35ZM406.462,1128.23C406.607,1127.77 406.895,1127.36 407.326,1127C407.976,1126.45 408.747,1126.17 409.64,1126.17L423.768,1126.17C426.041,1126.17 427.787,1127.1 429.005,1128.95L448.734,1157.43L468.464,1128.95C469.682,1127.1 471.427,1126.17 473.701,1126.17L487.828,1126.17C488.721,1126.17 489.493,1126.45 490.142,1127C490.792,1127.55 491.116,1128.2 491.116,1128.95L491.116,1195.36C491.116,1196.12 490.792,1196.77 490.142,1197.32C489.493,1197.87 488.721,1198.14 487.828,1198.14L471.874,1198.14C470.981,1198.14 470.209,1197.87 469.56,1197.32C468.91,1196.77 468.586,1196.12 468.586,1195.36L468.586,1161.34L457.138,1178.3C456.569,1179.05 455.94,1179.67 455.25,1180.15C454.56,1180.63 453.687,1180.87 452.631,1180.87L444.837,1180.87C443.781,1180.87 442.909,1180.63 442.219,1180.15C441.528,1179.67 440.899,1179.05 440.331,1178.3L428.883,1161.34L428.883,1161.47L406.462,1128.23ZM508.277,1128.23C508.421,1127.77 508.709,1127.36 509.141,1127C509.791,1126.45 510.562,1126.17 511.455,1126.17L525.582,1126.17C527.856,1126.17 529.601,1127.1 530.819,1128.95L550.549,1157.43L570.279,1128.95C571.496,1127.1 573.242,1126.17 575.515,1126.17L589.643,1126.17C590.536,1126.17 591.307,1126.45 591.957,1127C592.606,1127.55 592.931,1128.2 592.931,1128.95L592.931,1195.36C592.931,1196.12 592.606,1196.77 591.957,1197.32C591.307,1197.87 590.536,1198.14 589.643,1198.14L573.689,1198.14C572.796,1198.14 572.024,1197.87 571.375,1197.32C570.725,1196.77 570.4,1196.12 570.4,1195.36L570.4,1161.34L558.952,1178.3C558.384,1179.05 557.755,1179.67 557.065,1180.15C556.374,1180.63 555.502,1180.87 554.446,1180.87L546.652,1180.87C545.596,1180.87 544.723,1180.63 544.033,1180.15C543.343,1179.67 542.714,1179.05 542.146,1178.3L530.698,1161.34L530.698,1161.47L508.277,1128.23ZM1012.94,1198.12C1011.78,1198.12 1010.78,1197.7 1009.93,1196.86C1009.09,1196.01 1008.67,1195.01 1008.67,1193.85L1008.67,1091.68C1008.67,1090.52 1009.09,1089.52 1009.93,1088.67C1010.78,1087.83 1011.78,1087.41 1012.94,1087.41L1033.66,1087.41C1034.82,1087.41 1035.82,1087.83 1036.66,1088.67C1037.51,1089.52 1037.93,1090.52 1037.93,1091.68L1037.93,1193.85C1037.93,1195.01 1037.51,1196.01 1036.66,1196.86C1035.82,1197.7 1034.82,1198.12 1033.66,1198.12L1012.94,1198.12ZM1057.63,1128.21C1057.78,1127.75 1058.07,1127.34 1058.5,1126.98C1059.15,1126.43 1059.92,1126.16 1060.81,1126.16L1074.94,1126.16C1077.21,1126.16 1078.96,1127.08 1080.18,1128.93L1099.91,1157.41L1119.64,1128.93C1120.85,1127.08 1122.6,1126.16 1124.87,1126.16L1139,1126.16C1139.89,1126.16 1140.66,1126.43 1141.32,1126.98C1141.96,1127.53 1142.29,1128.18 1142.29,1128.93L1142.29,1195.35C1142.29,1196.1 1141.96,1196.75 1141.32,1197.3C1140.66,1197.85 1139.89,1198.12 1139,1198.12L1123.05,1198.12C1122.15,1198.12 1121.38,1197.85 1120.73,1197.3C1120.08,1196.75 1119.76,1196.1 1119.76,1195.35L1119.76,1161.32L1108.31,1178.28C1107.74,1179.03 1107.11,1179.65 1106.42,1180.13C1105.73,1180.61 1104.86,1180.85 1103.8,1180.85L1096.01,1180.85C1094.95,1180.85 1094.08,1180.61 1093.39,1180.13C1092.7,1179.65 1092.07,1179.03 1091.5,1178.28L1080.06,1161.32L1080.06,1161.45L1057.63,1128.21ZM1344.6,1181.67L1391.7,1181.67C1392.59,1181.67 1393.37,1181.95 1394.02,1182.5C1394.66,1183.04 1394.99,1183.69 1394.99,1184.45L1394.99,1195.35C1394.99,1196.1 1394.66,1196.75 1394.02,1197.3C1393.37,1197.85 1392.59,1198.12 1391.7,1198.12L1333.97,1198.12C1333.08,1198.12 1332.31,1197.85 1331.66,1197.3C1331.01,1196.75 1330.68,1196.1 1330.68,1195.35L1330.68,1161.04L1344.6,1181.67ZM1057.52,1152.33L1080.06,1185.73L1080.06,1195.35C1080.06,1196.1 1079.73,1196.75 1079.08,1197.3C1078.43,1197.85 1077.66,1198.12 1076.77,1198.12L1060.81,1198.12C1059.92,1198.12 1059.15,1197.85 1058.5,1197.3C1057.85,1196.75 1057.52,1196.1 1057.52,1195.35L1057.52,1152.33ZM1187.63,1126.58C1188.08,1126.32 1188.61,1126.16 1189.21,1126.16L1194.53,1126.16C1195.04,1126.16 1195.6,1126.31 1196.04,1126.57C1196.48,1126.82 1196.92,1127.26 1197.17,1127.7C1202.92,1137.66 1228.43,1181.85 1235.21,1193.59C1235.74,1194.5 1235.79,1195.67 1235.27,1196.58C1234.75,1197.49 1233.68,1198.12 1232.63,1198.12L1216.85,1198.12C1216.27,1198.12 1215.71,1197.94 1215.27,1197.68C1214.84,1197.41 1214.52,1197.08 1214.22,1196.55C1213.12,1194.64 1208.5,1186.65 1208.5,1186.65L1175.19,1186.65C1175.19,1186.65 1170.58,1194.63 1169.48,1196.55C1169.2,1197.02 1168.95,1197.38 1168.48,1197.66C1167.98,1197.96 1167.43,1198.12 1166.85,1198.12L1151.1,1198.12C1150.04,1198.12 1149.13,1197.7 1148.59,1196.8C1148.05,1195.89 1147.92,1194.57 1148.45,1193.65C1153.06,1185.66 1173.57,1150.14 1173.57,1150.14L1184.92,1169.8L1184.89,1169.85L1198.8,1169.85L1180.5,1138.14C1180.5,1138.14 1185.37,1129.71 1186.52,1127.71C1186.82,1127.19 1187.18,1126.84 1187.63,1126.58ZM623.897,1181.62L670.997,1181.62C671.89,1181.62 672.662,1181.89 673.311,1182.44C673.961,1182.99 674.286,1183.64 674.286,1184.4L674.286,1195.3C674.286,1196.05 673.961,1196.7 673.311,1197.25C672.662,1197.8 671.89,1198.07 670.997,1198.07L613.27,1198.07C612.377,1198.07 611.605,1197.8 610.956,1197.25C610.306,1196.7 609.982,1196.05 609.982,1195.3L609.982,1160.99L623.897,1181.62ZM354.381,1141.79C365.614,1141.79 374.733,1150.91 374.733,1162.14C374.733,1173.37 365.614,1182.49 354.381,1182.49C343.149,1182.49 334.03,1173.37 334.03,1162.14C334.03,1150.91 343.149,1141.79 354.381,1141.79ZM1360.7,1153.71L1388.04,1153.71C1388.94,1153.71 1389.71,1153.98 1390.36,1154.53C1391.01,1155.08 1391.33,1155.73 1391.33,1156.49L1391.33,1167.38C1391.33,1168.14 1391.01,1168.79 1390.36,1169.34C1389.71,1169.88 1388.94,1170.16 1388.04,1170.16L1355.78,1170.16L1330.68,1132.95L1330.68,1128.93C1330.68,1128.18 1331.01,1127.53 1331.66,1126.98C1332.31,1126.43 1333.08,1126.16 1333.97,1126.16L1390.72,1126.16C1391.62,1126.16 1392.39,1126.43 1393.04,1126.98C1393.69,1127.53 1394.01,1128.18 1394.01,1128.93L1394.01,1139.83C1394.01,1140.58 1393.69,1141.24 1393.04,1141.78C1392.39,1142.33 1391.62,1142.61 1390.72,1142.61L1353.21,1142.61L1360.7,1153.71ZM639.998,1153.66L667.34,1153.66C668.233,1153.66 669.004,1153.93 669.654,1154.48C670.303,1155.03 670.628,1155.68 670.628,1156.43L670.628,1167.33C670.628,1168.09 670.303,1168.74 669.654,1169.28C669.004,1169.83 668.233,1170.11 667.34,1170.11L635.072,1170.11L609.978,1132.9L609.978,1128.88C609.978,1128.13 610.302,1127.48 610.952,1126.93C611.601,1126.38 612.373,1126.11 613.266,1126.11L670.019,1126.11C670.912,1126.11 671.683,1126.38 672.333,1126.93C672.982,1127.48 673.307,1128.13 673.307,1128.88L673.307,1139.78C673.307,1140.53 672.982,1141.18 672.333,1141.73C671.683,1142.28 670.912,1142.55 670.019,1142.55L632.508,1142.55L639.998,1153.66ZM951.048,816.195C950.429,817.403 949.056,818.51 947.541,818.749C928.916,821.683 909.826,823.207 890.382,823.207C798.306,823.207 714.146,789.04 649.901,732.705C648.973,731.891 648.378,730.737 648.184,729.666C647.99,728.596 648.019,727.517 648.737,726.283L788.88,483.548C790.029,481.546 792.128,480.786 793.708,480.797C795.288,480.808 797.591,482.025 798.359,483.614L951.254,811.498C952.101,813.489 951.667,814.986 951.048,816.195ZM1215.19,620.513C1215.84,621.732 1215.76,623.684 1215.13,624.914C1169.28,713.962 1087.88,781.762 989.731,809.5C988.067,809.971 986.973,809.691 985.93,809.236C984.887,808.782 983.761,807.387 983.475,806.774C946.121,726.625 909.332,646.477 871.422,566.329C870.431,564.234 870.856,561.934 871.776,560.655C872.696,559.377 874.796,558.342 876.943,558.659L1211.2,617.598C1213.78,618.218 1214.53,619.293 1215.19,620.513ZM541.963,352.456C542.755,351.733 543.815,351.168 545.125,351.043C600.539,345.729 720.214,352.68 780.66,377.985C787.265,380.75 792.642,386.625 794.79,393.455C796.937,400.286 795.873,409.246 792.204,415.394L627.177,701.229C626.297,702.765 624.61,703.61 623.234,703.757C621.857,703.904 620.119,703.442 618.921,702.111C560.767,637.444 525.363,551.917 525.363,458.187C525.363,426.344 537.045,370.609 540.371,355.385C540.666,354.038 541.171,353.18 541.963,352.456ZM964.657,539.68C964.248,538.227 964.328,535.834 965.799,534.363L1208.15,292.012C1209.37,290.925 1211.23,290.542 1212.83,290.859C1214.15,291.12 1215.5,292.169 1216.11,293.369C1241.24,342.89 1255.4,398.897 1255.4,458.187C1255.4,502.82 1247.37,545.593 1232.68,585.139C1232.28,586.216 1231.47,587.328 1230.49,587.915C1229.5,588.502 1228.27,588.967 1226.76,588.661L968.254,543.08C966.328,542.659 965.066,541.133 964.657,539.68Z" style="fill:rgb(90,86,94);"/>
    </g>
    <g id="Orange" transform="matrix(1,0,0,1,-69.169,-214.55)">
        <path d="M775.547,1165.04C775.547,1165 775.567,1128.85 775.567,1128.85C775.567,1128.1 775.871,1127.46 776.479,1126.92C777.088,1126.38 777.81,1126.11 778.647,1126.11L793.591,1126.11C794.428,1126.11 795.15,1126.38 795.759,1126.92C796.367,1127.46 796.671,1128.1 796.671,1128.85L796.671,1169.3C796.671,1175.38 795.226,1180.58 792.336,1184.91C789.446,1189.23 785.396,1192.51 780.187,1194.74C774.977,1196.97 768.912,1198.09 761.991,1198.09C754.994,1198.09 748.891,1196.97 743.682,1194.74C738.472,1192.51 734.441,1189.23 731.589,1184.91C728.737,1180.58 727.311,1175.38 727.311,1169.3L727.311,1128.85C727.311,1128.1 727.615,1127.46 728.224,1126.92C728.832,1126.38 729.555,1126.11 730.391,1126.11L745.336,1126.11C746.172,1126.11 746.895,1126.38 747.503,1126.92C748.112,1127.46 748.416,1128.1 748.416,1128.85C748.416,1128.85 748.436,1165 748.436,1165.04C748.436,1171.69 754.51,1177.09 761.991,1177.09C769.473,1177.09 775.547,1171.69 775.547,1165.04ZM143.86,1183.38C143.86,1175.26 137.269,1168.67 129.15,1168.67C121.032,1168.67 114.441,1175.26 114.441,1183.38C114.441,1191.5 121.032,1198.09 129.15,1198.09C137.269,1198.09 143.86,1191.5 143.86,1183.38ZM904.279,1181.63L951.379,1181.63C952.272,1181.63 953.043,1181.9 953.693,1182.45C954.342,1183 954.667,1183.65 954.667,1184.4L954.667,1195.3C954.667,1196.05 954.342,1196.7 953.693,1197.25C953.043,1197.8 952.272,1198.08 951.379,1198.08L893.651,1198.08C892.758,1198.08 891.987,1197.8 891.337,1197.25C890.688,1196.7 890.363,1196.05 890.363,1195.3L890.363,1161L904.279,1181.63ZM808.561,1152.28L831.092,1185.68L831.092,1195.3C831.092,1196.05 830.767,1196.7 830.118,1197.25C829.468,1197.8 828.697,1198.08 827.804,1198.08L811.85,1198.08C810.957,1198.08 810.185,1197.8 809.536,1197.25C808.886,1196.7 808.561,1196.05 808.561,1195.3L808.561,1152.28ZM855.386,1163.92L855.386,1128.89C855.386,1128.13 855.71,1127.48 856.36,1126.93C857.009,1126.38 857.781,1126.11 858.674,1126.11L874.628,1126.11C875.521,1126.11 876.293,1126.38 876.942,1126.93C877.592,1127.48 877.916,1128.13 877.916,1128.89L877.916,1195.3C877.916,1196.05 877.592,1196.7 876.942,1197.25C876.293,1197.8 875.521,1198.08 874.628,1198.08L858.674,1198.08C858.237,1198.08 857.83,1198.01 857.452,1197.88C857.039,1197.76 856.668,1197.59 856.338,1197.36C855.648,1196.88 855.019,1196.26 854.45,1195.51L808.671,1128.16C808.816,1127.71 809.104,1127.3 809.536,1126.93C810.185,1126.38 810.957,1126.11 811.85,1126.11L825.977,1126.11C828.251,1126.11 829.996,1127.04 831.214,1128.89L855.386,1163.92ZM82.752,1168.72C83.084,1168.7 83.419,1168.68 83.757,1168.68C91.875,1168.68 98.466,1175.28 98.466,1183.39C98.466,1191.17 92.423,1197.54 84.784,1198.07L84.761,1198.03C84.43,1198.06 84.095,1198.07 83.757,1198.07C82.478,1198.07 81.237,1197.9 80.055,1197.6L69.169,1181.46C70.059,1174.57 75.722,1169.17 82.729,1168.68L82.752,1168.72ZM173.516,1168.68L187.765,1189.81C185.374,1194.7 180.35,1198.07 174.544,1198.07C166.426,1198.07 159.835,1191.48 159.835,1183.36C159.835,1175.59 165.877,1169.21 173.516,1168.68ZM920.383,1153.66L947.725,1153.66C948.618,1153.66 949.389,1153.94 950.039,1154.49C950.689,1155.03 951.013,1155.68 951.013,1156.44L951.013,1167.34C951.013,1168.09 950.689,1168.74 950.039,1169.29C949.389,1169.84 948.618,1170.11 947.725,1170.11L915.458,1170.11L890.363,1132.91L890.363,1128.89C890.363,1128.13 890.688,1127.48 891.337,1126.93C891.987,1126.38 892.758,1126.11 893.651,1126.11L950.404,1126.11C951.297,1126.11 952.069,1126.38 952.718,1126.93C953.368,1127.48 953.693,1128.13 953.693,1128.89L953.693,1139.78C953.693,1140.54 953.368,1141.19 952.718,1141.74C952.069,1142.29 951.297,1142.56 950.404,1142.56L912.894,1142.56L920.383,1153.66ZM69.407,655.175C68.534,649.594 70.116,641.046 73.279,636.365C151.663,520.37 251.936,427.319 370.521,358.01C373.468,356.288 376.385,357.884 377.356,359.307C378.326,360.73 379.466,364.149 376.346,366.546C251.475,462.465 188.129,545.968 136.197,639.719C134.941,641.987 134.343,645.469 134.796,648.021C135.249,650.574 136.904,653.396 138.914,655.034C468.855,923.968 910.624,989.786 1387.62,815.921C1391.47,814.518 1393.89,817.061 1394.6,818.637C1395.3,820.213 1395.39,823.82 1391.86,825.377C914.533,1035.64 369.186,939.1 78.036,671.011C73.88,667.185 70.273,660.757 69.399,655.175L69.407,655.175ZM1008.43,443.581C1006.98,443.151 1005.2,441.58 1004.92,439.861C987.675,336.122 832.768,263.763 619.676,263.763C616.563,263.763 614.908,261.195 614.676,259.485C614.444,257.776 614.853,254.446 618.282,253.507C697.869,231.728 793.249,214.55 896.84,214.55C1021.21,214.55 1116.95,235.543 1186.91,258.641C1188.65,259.215 1189.96,260.773 1190.33,262.155C1190.7,263.537 1190.38,265.668 1189.12,266.933C1155.78,300.275 1044.17,411.879 1013.61,442.44C1011.91,444.142 1009.88,444.011 1008.43,443.581Z" style="fill:rgb(241,90,34);fill-rule:nonzero;"/>
    </g>
</svg>
