<?xml version="1.0" encoding="UTF-8" standalone="no"?>
<!DOCTYPE svg PUBLIC "-//W3C//DTD SVG 1.1//EN" "http://www.w3.org/Graphics/SVG/1.1/DTD/svg11.dtd">
<svg width="100%" height="100%" viewBox="0 0 1322 1322" version="1.1" xmlns="http://www.w3.org/2000/svg" xmlns:xlink="http://www.w3.org/1999/xlink" xml:space="preserve" xmlns:serif="http://www.serif.com/" style="fill-rule:evenodd;clip-rule:evenodd;stroke-linejoin:round;stroke-miterlimit:2;">
    <g transform="matrix(1,0,0,1,-455.464,-339.062)">
        <path d="M1116.4,339.062C1481.43,339.062 1777.34,634.974 1777.34,1000C1777.34,1365.03 1481.43,1660.94 1116.4,1660.94C751.375,1660.94 455.464,1365.03 455.464,1000C455.464,634.974 751.375,339.062 1116.4,339.062Z" style="fill:rgb(23,119,242);fill-rule:nonzero;"/>
    </g>
    <g transform="matrix(1,0,0,1,-455.464,-339.062)">
        <path d="M1242.69,630.031C1289.83,630.031 1336.98,632.556 1384.13,637.186L1384.13,801.358L1286.89,801.358C1210.7,801.358 1196.38,837.559 1196.38,890.599L1196.38,1007.62L1377.81,1007.62L1354.24,1190.74L1196.38,1190.74L1196.38,1660.94L1006.95,1660.94L1006.95,1190.74L848.677,1190.74L848.677,1007.62L1006.95,1007.62L1006.95,872.499C1006.95,715.482 1102.93,630.031 1242.69,630.031Z" style="fill:white;fill-rule:nonzero;"/>
    </g>
</svg>
